# Blender 5.2.0 LTS
# www.blender.org
mtllib unit.mtl
o Cube
v -0.980785 0.000000 -0.195090
v -0.923880 0.000000 -0.382683
v -0.831470 0.000000 -0.555570
v -0.707107 0.000000 -0.707107
v -0.555570 0.000000 -0.831470
v -0.382683 0.000000 -0.923880
v -0.195090 0.000000 -0.980785
v 0.000000 0.000000 -1.000000
v -1.000000 0.000000 0.000000
v -0.980785 0.000000 0.195090
v -0.923880 0.000000 0.382683
v -0.831470 0.000000 0.555570
v -0.707107 0.000000 0.707107
v -0.555570 0.000000 0.831470
v -0.382683 0.000000 0.923880
v -0.195090 0.000000 0.980785
v 0.000000 0.000000 1.000000
v 0.195090 0.000000 0.980785
v 0.382683 0.000000 0.923880
v 0.555570 0.000000 0.831470
v 0.707107 0.000000 0.707107
v 0.831470 0.000000 0.555570
v 0.923880 0.000000 0.382683
v 0.980785 0.000000 0.195090
v 1.000000 0.000000 0.000000
v 0.980785 0.000000 -0.195090
v 0.923880 0.000000 -0.382683
v 0.831470 0.000000 -0.555570
v 0.707107 0.000000 -0.707107
v 0.555570 0.000000 -0.831470
v 0.382683 0.000000 -0.923880
v 0.195090 0.000000 -0.980785
v -0.922281 0.281626 -0.183453
v -0.868770 0.281626 -0.359856
v -0.781872 0.281626 -0.522430
v -0.664928 0.281626 -0.664928
v -0.522430 0.281626 -0.781872
v -0.359856 0.281626 -0.868770
v -0.183453 0.281626 -0.922281
v 0.000000 0.281626 -0.940350
v -0.940350 0.281626 -0.000000
v -0.922281 0.281626 0.183453
v -0.868770 0.281626 0.359856
v -0.781872 0.281626 0.522430
v -0.664928 0.281626 0.664928
v -0.522430 0.281626 0.781872
v -0.359856 0.281626 0.868770
v -0.183453 0.281626 0.922281
v 0.000000 0.281626 0.940350
v 0.183453 0.281626 0.922281
v 0.359856 0.281626 0.868770
v 0.522430 0.281626 0.781872
v 0.664928 0.281626 0.664928
v 0.781872 0.281626 0.522430
v 0.868770 0.281626 0.359856
v 0.922281 0.281626 0.183453
v 0.940350 0.281626 -0.000000
v 0.922281 0.281626 -0.183453
v 0.868770 0.281626 -0.359856
v 0.781872 0.281626 -0.522430
v 0.664928 0.281626 -0.664928
v 0.522430 0.281626 -0.781872
v 0.359856 0.281626 -0.868770
v 0.183453 0.281626 -0.922281
v -0.380363 0.972647 -0.075659
v -0.358294 0.972647 -0.148410
v -0.322456 0.972647 -0.215458
v -0.274226 0.972647 -0.274226
v -0.215458 0.972647 -0.322456
v -0.148410 0.972647 -0.358294
v -0.075659 0.972647 -0.380363
v -0.000000 0.972647 -0.387814
v -0.387814 0.972647 0.000000
v -0.380363 0.972647 0.075659
v -0.358294 0.972647 0.148410
v -0.322456 0.972647 0.215458
v -0.274226 0.972647 0.274226
v -0.215458 0.972647 0.322456
v -0.148410 0.972647 0.358294
v -0.075659 0.972647 0.380363
v -0.000000 0.972647 0.387814
v 0.075659 0.972647 0.380363
v 0.148410 0.972647 0.358294
v 0.215458 0.972647 0.322456
v 0.274226 0.972647 0.274226
v 0.322456 0.972647 0.215458
v 0.358294 0.972647 0.148410
v 0.380363 0.972647 0.075659
v 0.387814 0.972647 0.000000
v 0.380363 0.972647 -0.075659
v 0.358294 0.972647 -0.148410
v 0.322456 0.972647 -0.215458
v 0.274226 0.972647 -0.274226
v 0.215458 0.972647 -0.322456
v 0.148410 0.972647 -0.358294
v 0.075659 0.972647 -0.380363
v -0.380363 1.533282 -0.075659
v -0.358294 1.533282 -0.148410
v -0.322456 1.533282 -0.215458
v -0.274226 1.533282 -0.274226
v -0.215458 1.533282 -0.322456
v -0.148410 1.533282 -0.358294
v -0.075659 1.533282 -0.380363
v -0.000000 1.533282 -0.387814
v -0.387814 1.533282 0.000000
v -0.380363 1.533282 0.075659
v -0.358294 1.533282 0.148410
v -0.322456 1.533282 0.215458
v -0.274226 1.533282 0.274226
v -0.215458 1.533282 0.322456
v -0.148410 1.533282 0.358294
v -0.075659 1.533282 0.380363
v -0.000000 1.533282 0.387814
v 0.075659 1.533282 0.380363
v 0.148410 1.533282 0.358294
v 0.215458 1.533282 0.322456
v 0.274226 1.533282 0.274226
v 0.322456 1.533282 0.215458
v 0.358294 1.533282 0.148410
v 0.380363 1.533282 0.075659
v 0.387814 1.533282 0.000000
v 0.380363 1.533282 -0.075659
v 0.358294 1.533282 -0.148410
v 0.322456 1.533282 -0.215458
v 0.274226 1.533282 -0.274226
v 0.215458 1.533282 -0.322456
v 0.148410 1.533282 -0.358294
v 0.075659 1.533282 -0.380363
v -0.584556 1.794719 -0.116275
v -0.550640 1.794719 -0.228082
v -0.495563 1.794719 -0.331124
v -0.421441 1.794719 -0.421441
v -0.331124 1.794719 -0.495563
v -0.228083 1.794719 -0.550640
v -0.116275 1.794719 -0.584556
v -0.000000 1.794719 -0.596008
v -0.596008 1.794719 0.000000
v -0.584556 1.794719 0.116275
v -0.550640 1.794719 0.228082
v -0.495563 1.794719 0.331124
v -0.421441 1.794719 0.421441
v -0.331124 1.794719 0.495563
v -0.228083 1.794719 0.550640
v -0.116275 1.794719 0.584556
v -0.000000 1.794719 0.596008
v 0.116275 1.794719 0.584556
v 0.228082 1.794719 0.550640
v 0.331124 1.794719 0.495563
v 0.421441 1.794719 0.421441
v 0.495563 1.794719 0.331124
v 0.550640 1.794719 0.228082
v 0.584556 1.794719 0.116275
v 0.596008 1.794719 0.000000
v 0.584556 1.794719 -0.116275
v 0.550640 1.794719 -0.228082
v 0.495563 1.794719 -0.331124
v 0.421441 1.794719 -0.421441
v 0.331124 1.794719 -0.495563
v 0.228082 1.794719 -0.550640
v 0.116275 1.794719 -0.584556
v -0.584556 2.441725 -0.116275
v -0.550640 2.441725 -0.228082
v -0.495563 2.441725 -0.331124
v -0.421441 2.441725 -0.421441
v -0.331124 2.441725 -0.495563
v -0.228082 2.441725 -0.550640
v -0.116275 2.441725 -0.584556
v -0.000000 2.441725 -0.596008
v -0.596008 2.441725 0.000000
v -0.584556 2.441725 0.116275
v -0.550640 2.441725 0.228082
v -0.495563 2.441725 0.331124
v -0.421441 2.441725 0.421441
v -0.331124 2.441725 0.495563
v -0.228082 2.441725 0.550640
v -0.116275 2.441725 0.584556
v -0.000000 2.441725 0.596008
v 0.116275 2.441725 0.584556
v 0.228082 2.441725 0.550640
v 0.331124 2.441725 0.495563
v 0.421441 2.441725 0.421441
v 0.495563 2.441725 0.331124
v 0.550640 2.441725 0.228082
v 0.584556 2.441725 0.116275
v 0.596008 2.441725 0.000000
v 0.584556 2.441725 -0.116275
v 0.550640 2.441725 -0.228082
v 0.495563 2.441725 -0.331124
v 0.421441 2.441725 -0.421441
v 0.331124 2.441725 -0.495563
v 0.228082 2.441725 -0.550640
v 0.116275 2.441725 -0.584556
v -0.343829 2.665982 -0.068392
v -0.323880 2.665982 -0.134155
v -0.291484 2.665982 -0.194763
v -0.247887 2.665982 -0.247887
v -0.194763 2.665982 -0.291484
v -0.134155 2.665982 -0.323880
v -0.068392 2.665982 -0.343829
v -0.000000 2.665982 -0.350565
v -0.350565 2.665982 0.000000
v -0.343829 2.665982 0.068392
v -0.323880 2.665982 0.134155
v -0.291484 2.665982 0.194763
v -0.247887 2.665982 0.247887
v -0.194763 2.665982 0.291484
v -0.134155 2.665982 0.323880
v -0.068392 2.665982 0.343829
v -0.000000 2.665982 0.350565
v 0.068392 2.665982 0.343829
v 0.134155 2.665982 0.323880
v 0.194763 2.665982 0.291484
v 0.247887 2.665982 0.247887
v 0.291484 2.665982 0.194763
v 0.323880 2.665982 0.134155
v 0.343829 2.665982 0.068392
v 0.350565 2.665982 0.000000
v 0.343829 2.665982 -0.068392
v 0.323880 2.665982 -0.134155
v 0.291484 2.665982 -0.194763
v 0.247887 2.665982 -0.247887
v 0.194763 2.665982 -0.291484
v 0.134155 2.665982 -0.323880
v 0.068392 2.665982 -0.343829
vn -0.7795 -0.6069 -0.1551
vn -0.7343 -0.6069 -0.3042
vn -0.6609 -0.6069 -0.4416
vn -0.5620 -0.6069 -0.5620
vn -0.4416 -0.6069 -0.6609
vn -0.3042 -0.6069 -0.7343
vn -0.1551 -0.6069 -0.7795
vn -0.0000 -0.6069 -0.7948
vn -0.7948 -0.6069 -0.0000
vn -0.7795 -0.6069 0.1551
vn -0.7343 -0.6069 0.3042
vn -0.6609 -0.6069 0.4416
vn -0.5620 -0.6069 0.5620
vn -0.4416 -0.6069 0.6609
vn -0.3042 -0.6069 0.7343
vn -0.1551 -0.6069 0.7795
vn -0.0000 -0.6069 0.7948
vn 0.1551 -0.6069 0.7795
vn 0.3042 -0.6069 0.7343
vn 0.4416 -0.6069 0.6609
vn 0.5620 -0.6069 0.5620
vn 0.6609 -0.6069 0.4416
vn 0.7343 -0.6069 0.3042
vn 0.7795 -0.6069 0.1551
vn 0.7948 -0.6069 -0.0000
vn 0.7795 -0.6069 -0.1551
vn 0.7343 -0.6069 -0.3042
vn 0.6609 -0.6069 -0.4416
vn 0.5620 -0.6069 -0.5620
vn 0.4416 -0.6069 -0.6609
vn 0.3042 -0.6069 -0.7343
vn 0.1551 -0.6069 -0.7795
vn -0.8892 0.4219 -0.1769
vn -0.8376 0.4219 -0.3470
vn -0.7538 0.4219 -0.5037
vn -0.6411 0.4219 -0.6411
vn -0.5037 0.4219 -0.7538
vn -0.3470 0.4219 -0.8376
vn -0.1769 0.4219 -0.8892
vn -0.0000 0.4219 -0.9066
vn -0.9066 0.4219 -0.0000
vn -0.8892 0.4219 0.1769
vn -0.8376 0.4219 0.3470
vn -0.7538 0.4219 0.5037
vn -0.6411 0.4219 0.6411
vn -0.5037 0.4219 0.7538
vn -0.3470 0.4219 0.8376
vn -0.1769 0.4219 0.8892
vn -0.0000 0.4219 0.9066
vn 0.1769 0.4219 0.8892
vn 0.3470 0.4219 0.8376
vn 0.5037 0.4219 0.7538
vn 0.6411 0.4219 0.6411
vn 0.7538 0.4219 0.5037
vn 0.8376 0.4219 0.3470
vn 0.8892 0.4219 0.1769
vn 0.9066 0.4219 -0.0000
vn 0.8892 0.4219 -0.1769
vn 0.8376 0.4219 -0.3470
vn 0.7538 0.4219 -0.5037
vn 0.6411 0.4219 -0.6411
vn 0.5037 0.4219 -0.7538
vn 0.3470 0.4219 -0.8376
vn 0.1769 0.4219 -0.8892
vn -0.9232 0.3375 -0.1836
vn -0.8697 0.3375 -0.3602
vn -0.7827 0.3375 -0.5230
vn -0.6656 0.3375 -0.6656
vn -0.5230 0.3375 -0.7827
vn -0.3602 0.3375 -0.8697
vn -0.1836 0.3375 -0.9232
vn -0.0000 0.3375 -0.9413
vn -0.9413 0.3375 -0.0000
vn -0.9232 0.3375 0.1836
vn -0.8697 0.3375 0.3602
vn -0.7827 0.3375 0.5230
vn -0.6656 0.3375 0.6656
vn -0.5230 0.3375 0.7827
vn -0.3602 0.3375 0.8697
vn -0.1836 0.3375 0.9232
vn -0.0000 0.3375 0.9413
vn 0.1836 0.3375 0.9232
vn 0.3602 0.3375 0.8697
vn 0.5230 0.3375 0.7827
vn 0.6656 0.3375 0.6656
vn 0.7827 0.3375 0.5230
vn 0.8697 0.3375 0.3602
vn 0.9232 0.3375 0.1836
vn 0.9413 0.3375 -0.0000
vn 0.9232 0.3375 -0.1836
vn 0.8697 0.3375 -0.3602
vn 0.7827 0.3375 -0.5230
vn 0.6656 0.3375 -0.6656
vn 0.5230 0.3375 -0.7827
vn 0.3602 0.3375 -0.8697
vn 0.1836 0.3375 -0.9232
vn -0.9236 -0.3365 -0.1837
vn -0.8700 -0.3365 -0.3604
vn -0.7830 -0.3365 -0.5232
vn -0.6659 -0.3365 -0.6659
vn -0.5232 -0.3365 -0.7830
vn -0.3604 -0.3365 -0.8700
vn -0.1837 -0.3365 -0.9236
vn -0.0000 -0.3365 -0.9417
vn -0.9417 -0.3365 -0.0000
vn -0.9236 -0.3365 0.1837
vn -0.8700 -0.3365 0.3604
vn -0.7830 -0.3365 0.5232
vn -0.6659 -0.3365 0.6659
vn -0.5232 -0.3365 0.7830
vn -0.3604 -0.3365 0.8700
vn -0.1837 -0.3365 0.9236
vn -0.0000 -0.3365 0.9417
vn 0.1837 -0.3365 0.9236
vn 0.3604 -0.3365 0.8700
vn 0.5232 -0.3365 0.7830
vn 0.6659 -0.3365 0.6659
vn 0.7830 -0.3365 0.5232
vn 0.8700 -0.3365 0.3604
vn 0.9236 -0.3365 0.1837
vn 0.9417 -0.3365 -0.0000
vn 0.9236 -0.3365 -0.1837
vn 0.8700 -0.3365 -0.3604
vn 0.7830 -0.3365 -0.5232
vn 0.6659 -0.3365 -0.6659
vn 0.5232 -0.3365 -0.7830
vn 0.3604 -0.3365 -0.8700
vn 0.1837 -0.3365 -0.9236
vn -0.9280 -0.3237 -0.1846
vn -0.8741 -0.3237 -0.3621
vn -0.7867 -0.3237 -0.5257
vn -0.6690 -0.3237 -0.6690
vn -0.5257 -0.3237 -0.7867
vn -0.3621 -0.3237 -0.8741
vn -0.1846 -0.3237 -0.9280
vn -0.0000 -0.3237 -0.9462
vn -0.9462 -0.3237 -0.0000
vn -0.9280 -0.3237 0.1846
vn -0.8741 -0.3237 0.3621
vn -0.7867 -0.3237 0.5257
vn -0.6690 -0.3237 0.6690
vn -0.5257 -0.3237 0.7867
vn -0.3621 -0.3237 0.8741
vn -0.1846 -0.3237 0.9280
vn -0.0000 -0.3237 0.9462
vn 0.1846 -0.3237 0.9280
vn 0.3621 -0.3237 0.8741
vn 0.5257 -0.3237 0.7867
vn 0.6690 -0.3237 0.6690
vn 0.7867 -0.3237 0.5257
vn 0.8741 -0.3237 0.3621
vn 0.9280 -0.3237 0.1846
vn 0.9462 -0.3237 -0.0000
vn 0.9280 -0.3237 -0.1846
vn 0.8741 -0.3237 -0.3621
vn 0.7867 -0.3237 -0.5257
vn 0.6690 -0.3237 -0.6690
vn 0.5257 -0.3237 -0.7867
vn 0.3621 -0.3237 -0.8741
vn 0.1846 -0.3237 -0.9280
vn -0.9013 0.3944 -0.1793
vn -0.8490 0.3944 -0.3517
vn -0.7641 0.3944 -0.5105
vn -0.6498 0.3944 -0.6498
vn -0.5105 0.3944 -0.7641
vn -0.3517 0.3944 -0.8490
vn -0.1793 0.3944 -0.9013
vn -0.0000 0.3944 -0.9189
vn -0.9189 0.3944 -0.0000
vn -0.9013 0.3944 0.1793
vn -0.8490 0.3944 0.3517
vn -0.7641 0.3944 0.5105
vn -0.6498 0.3944 0.6498
vn -0.5105 0.3944 0.7641
vn -0.3517 0.3944 0.8490
vn -0.1793 0.3944 0.9013
vn -0.0000 0.3944 0.9189
vn 0.1793 0.3944 0.9013
vn 0.3517 0.3944 0.8490
vn 0.5105 0.3944 0.7641
vn 0.6498 0.3944 0.6498
vn 0.7641 0.3944 0.5105
vn 0.8490 0.3944 0.3517
vn 0.9013 0.3944 0.1793
vn 0.9189 0.3944 -0.0000
vn 0.9013 0.3944 -0.1793
vn 0.8490 0.3944 -0.3517
vn 0.7641 0.3944 -0.5105
vn 0.6498 0.3944 -0.6498
vn 0.5105 0.3944 -0.7641
vn 0.3517 0.3944 -0.8490
vn 0.1793 0.3944 -0.9013
vn -0.3738 0.9245 -0.0743
vn -0.3521 0.9245 -0.1458
vn -0.3169 0.9245 -0.2117
vn -0.2695 0.9245 -0.2695
vn -0.2117 0.9245 -0.3169
vn -0.1458 0.9245 -0.3521
vn -0.0743 0.9245 -0.3738
vn -0.0000 0.9245 -0.3811
vn -0.3811 0.9245 -0.0000
vn -0.3738 0.9245 0.0743
vn -0.3521 0.9245 0.1458
vn -0.3169 0.9245 0.2117
vn -0.2695 0.9245 0.2695
vn -0.2117 0.9245 0.3169
vn -0.1458 0.9245 0.3521
vn -0.0743 0.9245 0.3738
vn -0.0000 0.9245 0.3811
vn 0.0743 0.9245 0.3738
vn 0.1458 0.9245 0.3521
vn 0.2117 0.9245 0.3169
vn 0.2695 0.9245 0.2695
vn 0.3169 0.9245 0.2117
vn 0.3521 0.9245 0.1458
vn 0.3738 0.9245 0.0743
vn 0.3811 0.9245 -0.0000
vn 0.3738 0.9245 -0.0743
vn 0.3521 0.9245 -0.1458
vn 0.3169 0.9245 -0.2117
vn 0.2695 0.9245 -0.2695
vn 0.2117 0.9245 -0.3169
vn 0.1458 0.9245 -0.3521
vn 0.0743 0.9245 -0.3738
vt 0.000000 0.000000
s 1
usemtl Material
f 13/1/13 14/1/14 46/1/46 45/1/45
f 53/1/53 54/1/54 86/1/86 85/1/85
f 6/1/6 7/1/7 8/1/8 32/1/32 31/1/31 30/1/30 29/1/29 28/1/28 27/1/27 26/1/26 25/1/25 24/1/24 23/1/23 22/1/22 21/1/21 20/1/20 19/1/19 18/1/18 17/1/17 16/1/16 15/1/15 14/1/14 13/1/13 12/1/12 11/1/11 10/1/10 9/1/9 1/1/1 2/1/2 3/1/3 4/1/4 5/1/5
f 26/1/26 27/1/27 59/1/59 58/1/58
f 27/1/27 28/1/28 60/1/60 59/1/59
f 14/1/14 15/1/15 47/1/47 46/1/46
f 7/1/7 6/1/6 38/1/38 39/1/39
f 28/1/28 29/1/29 61/1/61 60/1/60
f 15/1/15 16/1/16 48/1/48 47/1/47
f 9/1/9 10/1/10 42/1/42 41/1/41
f 29/1/29 30/1/30 62/1/62 61/1/61
f 16/1/16 17/1/17 49/1/49 48/1/48
f 12/1/12 13/1/13 45/1/45 44/1/44
f 30/1/30 31/1/31 63/1/63 62/1/62
f 17/1/17 18/1/18 50/1/50 49/1/49
f 8/1/8 7/1/7 39/1/39 40/1/40
f 31/1/31 32/1/32 64/1/64 63/1/63
f 18/1/18 19/1/19 51/1/51 50/1/50
f 2/1/2 1/1/1 33/1/33 34/1/34
f 32/1/32 8/1/8 40/1/40 64/1/64
f 19/1/19 20/1/20 52/1/52 51/1/51
f 5/1/5 4/1/4 36/1/36 37/1/37
f 20/1/20 21/1/21 53/1/53 52/1/52
f 3/1/3 2/1/2 34/1/34 35/1/35
f 21/1/21 22/1/22 54/1/54 53/1/53
f 11/1/11 12/1/12 44/1/44 43/1/43
f 22/1/22 23/1/23 55/1/55 54/1/54
f 4/1/4 3/1/3 35/1/35 36/1/36
f 23/1/23 24/1/24 56/1/56 55/1/55
f 6/1/6 5/1/5 37/1/37 38/1/38
f 24/1/24 25/1/25 57/1/57 56/1/56
f 10/1/10 11/1/11 43/1/43 42/1/42
f 25/1/25 26/1/26 58/1/58 57/1/57
f 1/1/1 9/1/9 41/1/41 33/1/33
f 94/1/94 95/1/95 127/1/127 126/1/126
f 43/1/43 44/1/44 76/1/76 75/1/75
f 54/1/54 55/1/55 87/1/87 86/1/86
f 36/1/36 35/1/35 67/1/67 68/1/68
f 55/1/55 56/1/56 88/1/88 87/1/87
f 38/1/38 37/1/37 69/1/69 70/1/70
f 56/1/56 57/1/57 89/1/89 88/1/88
f 42/1/42 43/1/43 75/1/75 74/1/74
f 57/1/57 58/1/58 90/1/90 89/1/89
f 33/1/33 41/1/41 73/1/73 65/1/65
f 58/1/58 59/1/59 91/1/91 90/1/90
f 45/1/45 46/1/46 78/1/78 77/1/77
f 59/1/59 60/1/60 92/1/92 91/1/91
f 46/1/46 47/1/47 79/1/79 78/1/78
f 39/1/39 38/1/38 70/1/70 71/1/71
f 60/1/60 61/1/61 93/1/93 92/1/92
f 47/1/47 48/1/48 80/1/80 79/1/79
f 41/1/41 42/1/42 74/1/74 73/1/73
f 61/1/61 62/1/62 94/1/94 93/1/93
f 48/1/48 49/1/49 81/1/81 80/1/80
f 44/1/44 45/1/45 77/1/77 76/1/76
f 62/1/62 63/1/63 95/1/95 94/1/94
f 49/1/49 50/1/50 82/1/82 81/1/81
f 40/1/40 39/1/39 71/1/71 72/1/72
f 63/1/63 64/1/64 96/1/96 95/1/95
f 50/1/50 51/1/51 83/1/83 82/1/82
f 34/1/34 33/1/33 65/1/65 66/1/66
f 64/1/64 40/1/40 72/1/72 96/1/96
f 51/1/51 52/1/52 84/1/84 83/1/83
f 37/1/37 36/1/36 68/1/68 69/1/69
f 52/1/52 53/1/53 85/1/85 84/1/84
f 35/1/35 34/1/34 66/1/66 67/1/67
f 116/1/116 117/1/117 149/1/149 148/1/148
f 81/1/81 82/1/82 114/1/114 113/1/113
f 72/1/72 71/1/71 103/1/103 104/1/104
f 95/1/95 96/1/96 128/1/128 127/1/127
f 82/1/82 83/1/83 115/1/115 114/1/114
f 66/1/66 65/1/65 97/1/97 98/1/98
f 96/1/96 72/1/72 104/1/104 128/1/128
f 83/1/83 84/1/84 116/1/116 115/1/115
f 69/1/69 68/1/68 100/1/100 101/1/101
f 84/1/84 85/1/85 117/1/117 116/1/116
f 67/1/67 66/1/66 98/1/98 99/1/99
f 85/1/85 86/1/86 118/1/118 117/1/117
f 75/1/75 76/1/76 108/1/108 107/1/107
f 86/1/86 87/1/87 119/1/119 118/1/118
f 68/1/68 67/1/67 99/1/99 100/1/100
f 87/1/87 88/1/88 120/1/120 119/1/119
f 70/1/70 69/1/69 101/1/101 102/1/102
f 88/1/88 89/1/89 121/1/121 120/1/120
f 74/1/74 75/1/75 107/1/107 106/1/106
f 89/1/89 90/1/90 122/1/122 121/1/121
f 65/1/65 73/1/73 105/1/105 97/1/97
f 90/1/90 91/1/91 123/1/123 122/1/122
f 77/1/77 78/1/78 110/1/110 109/1/109
f 91/1/91 92/1/92 124/1/124 123/1/123
f 78/1/78 79/1/79 111/1/111 110/1/110
f 71/1/71 70/1/70 102/1/102 103/1/103
f 92/1/92 93/1/93 125/1/125 124/1/124
f 79/1/79 80/1/80 112/1/112 111/1/111
f 73/1/73 74/1/74 106/1/106 105/1/105
f 93/1/93 94/1/94 126/1/126 125/1/125
f 80/1/80 81/1/81 113/1/113 112/1/112
f 76/1/76 77/1/77 109/1/109 108/1/108
f 151/1/151 152/1/152 184/1/184 183/1/183
f 99/1/99 98/1/98 130/1/130 131/1/131
f 117/1/117 118/1/118 150/1/150 149/1/149
f 107/1/107 108/1/108 140/1/140 139/1/139
f 118/1/118 119/1/119 151/1/151 150/1/150
f 100/1/100 99/1/99 131/1/131 132/1/132
f 119/1/119 120/1/120 152/1/152 151/1/151
f 102/1/102 101/1/101 133/1/133 134/1/134
f 120/1/120 121/1/121 153/1/153 152/1/152
f 106/1/106 107/1/107 139/1/139 138/1/138
f 121/1/121 122/1/122 154/1/154 153/1/153
f 97/1/97 105/1/105 137/1/137 129/1/129
f 122/1/122 123/1/123 155/1/155 154/1/154
f 109/1/109 110/1/110 142/1/142 141/1/141
f 123/1/123 124/1/124 156/1/156 155/1/155
f 110/1/110 111/1/111 143/1/143 142/1/142
f 103/1/103 102/1/102 134/1/134 135/1/135
f 124/1/124 125/1/125 157/1/157 156/1/156
f 111/1/111 112/1/112 144/1/144 143/1/143
f 105/1/105 106/1/106 138/1/138 137/1/137
f 125/1/125 126/1/126 158/1/158 157/1/157
f 112/1/112 113/1/113 145/1/145 144/1/144
f 108/1/108 109/1/109 141/1/141 140/1/140
f 126/1/126 127/1/127 159/1/159 158/1/158
f 113/1/113 114/1/114 146/1/146 145/1/145
f 104/1/104 103/1/103 135/1/135 136/1/136
f 127/1/127 128/1/128 160/1/160 159/1/159
f 114/1/114 115/1/115 147/1/147 146/1/146
f 98/1/98 97/1/97 129/1/129 130/1/130
f 128/1/128 104/1/104 136/1/136 160/1/160
f 115/1/115 116/1/116 148/1/148 147/1/147
f 101/1/101 100/1/100 132/1/132 133/1/133
f 186/1/186 187/1/187 219/1/219 218/1/218
f 134/1/134 133/1/133 165/1/165 166/1/166
f 152/1/152 153/1/153 185/1/185 184/1/184
f 138/1/138 139/1/139 171/1/171 170/1/170
f 153/1/153 154/1/154 186/1/186 185/1/185
f 129/1/129 137/1/137 169/1/169 161/1/161
f 154/1/154 155/1/155 187/1/187 186/1/186
f 141/1/141 142/1/142 174/1/174 173/1/173
f 155/1/155 156/1/156 188/1/188 187/1/187
f 142/1/142 143/1/143 175/1/175 174/1/174
f 135/1/135 134/1/134 166/1/166 167/1/167
f 156/1/156 157/1/157 189/1/189 188/1/188
f 143/1/143 144/1/144 176/1/176 175/1/175
f 137/1/137 138/1/138 170/1/170 169/1/169
f 157/1/157 158/1/158 190/1/190 189/1/189
f 144/1/144 145/1/145 177/1/177 176/1/176
f 140/1/140 141/1/141 173/1/173 172/1/172
f 158/1/158 159/1/159 191/1/191 190/1/190
f 145/1/145 146/1/146 178/1/178 177/1/177
f 136/1/136 135/1/135 167/1/167 168/1/168
f 159/1/159 160/1/160 192/1/192 191/1/191
f 146/1/146 147/1/147 179/1/179 178/1/178
f 130/1/130 129/1/129 161/1/161 162/1/162
f 160/1/160 136/1/136 168/1/168 192/1/192
f 147/1/147 148/1/148 180/1/180 179/1/179
f 133/1/133 132/1/132 164/1/164 165/1/165
f 148/1/148 149/1/149 181/1/181 180/1/180
f 131/1/131 130/1/130 162/1/162 163/1/163
f 149/1/149 150/1/150 182/1/182 181/1/181
f 139/1/139 140/1/140 172/1/172 171/1/171
f 150/1/150 151/1/151 183/1/183 182/1/182
f 132/1/132 131/1/131 163/1/163 164/1/164
f 198/1/198 197/1/197 196/1/196 195/1/195 194/1/194 193/1/193 201/1/201 202/1/202 203/1/203 204/1/204 205/1/205 206/1/206 207/1/207 208/1/208 209/1/209 210/1/210 211/1/211 212/1/212 213/1/213 214/1/214 215/1/215 216/1/216 217/1/217 218/1/218 219/1/219 220/1/220 221/1/221 222/1/222 223/1/223 224/1/224 200/1/200 199/1/199
f 173/1/173 174/1/174 206/1/206 205/1/205
f 187/1/187 188/1/188 220/1/220 219/1/219
f 174/1/174 175/1/175 207/1/207 206/1/206
f 167/1/167 166/1/166 198/1/198 199/1/199
f 188/1/188 189/1/189 221/1/221 220/1/220
f 175/1/175 176/1/176 208/1/208 207/1/207
f 169/1/169 170/1/170 202/1/202 201/1/201
f 189/1/189 190/1/190 222/1/222 221/1/221
f 176/1/176 177/1/177 209/1/209 208/1/208
f 172/1/172 173/1/173 205/1/205 204/1/204
f 190/1/190 191/1/191 223/1/223 222/1/222
f 177/1/177 178/1/178 210/1/210 209/1/209
f 168/1/168 167/1/167 199/1/199 200/1/200
f 191/1/191 192/1/192 224/1/224 223/1/223
f 178/1/178 179/1/179 211/1/211 210/1/210
f 162/1/162 161/1/161 193/1/193 194/1/194
f 192/1/192 168/1/168 200/1/200 224/1/224
f 179/1/179 180/1/180 212/1/212 211/1/211
f 165/1/165 164/1/164 196/1/196 197/1/197
f 180/1/180 181/1/181 213/1/213 212/1/212
f 163/1/163 162/1/162 194/1/194 195/1/195
f 181/1/181 182/1/182 214/1/214 213/1/213
f 171/1/171 172/1/172 204/1/204 203/1/203
f 182/1/182 183/1/183 215/1/215 214/1/214
f 164/1/164 163/1/163 195/1/195 196/1/196
f 183/1/183 184/1/184 216/1/216 215/1/215
f 166/1/166 165/1/165 197/1/197 198/1/198
f 184/1/184 185/1/185 217/1/217 216/1/216
f 170/1/170 171/1/171 203/1/203 202/1/202
f 185/1/185 186/1/186 218/1/218 217/1/217
f 161/1/161 169/1/169 201/1/201 193/1/193
